<svg width="14" height="16" viewBox="0 0 14 16" fill="none" xmlns="http://www.w3.org/2000/svg">
<path d="M11 5V4C11 1.79437 9.20559 0 7 0C4.79437 0 3 1.79437 3 4V5H0V13.5C0 14.8807 1.11928 16 2.5 16H11.5C12.8807 16 14 14.8807 14 13.5V5H11ZM5 4C5 2.89719 5.89719 2 7 2C8.10281 2 9 2.89719 9 4V5H5V4ZM10 7.75C9.58578 7.75 9.25 7.41422 9.25 7C9.25 6.58578 9.58578 6.25 10 6.25C10.4142 6.25 10.75 6.58578 10.75 7C10.75 7.41422 10.4142 7.75 10 7.75ZM4 7.75C3.58578 7.75 3.25 7.41422 3.25 7C3.25 6.58578 3.58578 6.25 4 6.25C4.41422 6.25 4.75 6.58578 4.75 7C4.75 7.41422 4.41422 7.75 4 7.75Z" fill="white"/>
</svg>
